<?xml version="1.0" encoding="UTF-8"?>
<svg version="1.1" xmlns="http://www.w3.org/2000/svg" width="500" height="500">
<path d="M0 0 C1.16374102 -0.00382555 2.32748204 -0.00765109 3.52648795 -0.01159257 C6.73441348 -0.02008764 9.94219148 -0.01970353 13.15012074 -0.01541197 C16.6185201 -0.01293568 20.08689304 -0.02197008 23.55528259 -0.02944946 C30.34164281 -0.04217343 37.12796342 -0.04399304 43.91433357 -0.0416492 C49.43271718 -0.03986332 54.9510888 -0.04162147 60.46947098 -0.04587364 C61.64934487 -0.04676643 61.64934487 -0.04676643 62.85305459 -0.04767724 C64.45120274 -0.04888905 66.04935089 -0.05010318 67.64749904 -0.05131962 C82.62184264 -0.06218627 97.59616369 -0.0600368 112.57050855 -0.05393478 C126.25540336 -0.04876629 139.94022697 -0.06002082 153.62510769 -0.07903299 C167.69297684 -0.09842671 181.76081234 -0.10666471 195.82869494 -0.10290974 C203.7202359 -0.10100004 211.61171628 -0.10346274 219.50324631 -0.11762428 C226.22137027 -0.1295586 232.93939635 -0.13092003 239.65752171 -0.11883412 C243.0817112 -0.1129598 246.50572181 -0.11180557 249.92989922 -0.12383652 C253.65012687 -0.13431129 257.36987717 -0.12619668 261.09008789 -0.11352539 C262.16082782 -0.12089968 263.23156775 -0.12827396 264.33475435 -0.13587171 C280.73489549 -0.0187514 295.453663 6.84021273 307.21109009 18.23725891 C308.97004368 20.18218116 310.58867004 22.17082398 312.17202759 24.26069641 C312.6940979 24.93616516 313.21616821 25.61163391 313.75405884 26.30757141 C326.27478091 43.67809216 325.46559623 63.74352692 325.41494751 84.13789368 C325.41602176 86.65232899 325.41796257 89.16676406 325.42070007 91.68119812 C325.4250282 97.77620474 325.4201361 103.87114295 325.41084977 109.96614213 C325.40040909 117.07727521 325.40053746 124.1883968 325.40102235 131.2995361 C325.4015218 143.99452744 325.39239301 156.68949349 325.37783813 169.38447571 C325.36375015 181.67875123 325.35666761 193.97300451 325.35733032 206.26728821 C325.35737028 207.02474583 325.35741023 207.78220345 325.3574514 208.56261433 C325.35749176 209.31881492 325.35753211 210.07501552 325.35757369 210.85413128 C325.35826509 224.88726252 325.35236499 238.92038438 325.34342047 252.95351257 C325.34041543 257.90031934 325.33934226 262.84712438 325.33888817 267.79393196 C325.33813129 274.46131468 325.33174948 281.12867106 325.32172203 287.79604721 C325.31881191 290.23726573 325.31756863 292.67848692 325.31814957 295.11970711 C325.31864387 298.46263135 325.31294947 301.80549169 325.30574036 305.14840698 C325.30728896 306.10455904 325.30883756 307.0607111 325.31043309 308.04583746 C325.23822531 328.44906262 321.22877983 345.16622278 306.73452759 360.13569641 C303.49838742 363.26069641 303.49838742 363.26069641 301.17202759 363.26069641 C301.17202759 363.92069641 301.17202759 364.58069641 301.17202759 365.26069641 C289.25507505 375.76116364 272.8249788 378.57361032 257.51646423 378.52812195 C256.38327592 378.53265306 255.2500876 378.53718417 254.08256024 378.54185259 C250.30675789 378.55445584 246.53110053 378.55287883 242.75527954 378.55122375 C240.03925538 378.55612816 237.32324123 378.56396172 234.60722351 378.57157898 C228.00749114 378.58813932 221.40779452 378.59368628 214.8080431 378.59480374 C209.43893529 378.59575661 204.06983919 378.59987881 198.70073509 378.60620499 C183.45196268 378.62380414 168.20321833 378.63304598 152.95443568 378.63154404 C152.1336458 378.63146413 151.31285591 378.63138421 150.4671936 378.63130188 C149.64539237 378.63122012 148.82359113 378.63113836 147.97688683 378.63105412 C134.66656288 378.63024168 121.35635222 378.64937218 108.04606102 378.67757861 C94.35330369 378.70636475 80.66060152 378.72011575 66.96781319 378.71839106 C59.29075754 378.71772912 51.61382064 378.72313517 43.93679237 378.74474716 C37.3992137 378.76303463 30.86180761 378.7672447 24.32421432 378.75372832 C20.99457775 378.74723624 17.66553922 378.74915325 14.33589172 378.76443481 C-9.36919007 378.86613709 -28.41101638 376.45819399 -46.02328491 359.09663391 C-59.54380042 344.54794232 -64.17116899 327.4777303 -64.0819397 307.95185852 C-64.08505968 306.88018149 -64.08817966 305.80850447 -64.09139419 304.70435238 C-64.0993083 301.14885736 -64.09307637 297.59353615 -64.08676147 294.03804016 C-64.08947426 291.47449138 -64.09303681 288.91094338 -64.09738159 286.34739685 C-64.10553121 280.12859811 -64.10437067 273.90986268 -64.09855631 267.69106317 C-64.09402474 262.63328675 -64.09343336 257.57552384 -64.09560394 252.51774597 C-64.09591041 251.79569188 -64.09621688 251.07363779 -64.09653263 250.32970327 C-64.09717213 248.86249645 -64.09782056 247.39528964 -64.09847781 245.92808282 C-64.10416994 232.19599865 -64.09764079 218.46394125 -64.08687708 204.73186147 C-64.07794258 192.96964982 -64.07949494 181.20747766 -64.0887146 169.44526672 C-64.09943702 155.75962074 -64.10362072 142.07399818 -64.09749007 128.38834858 C-64.09685303 126.92678134 -64.09622429 125.4652141 -64.09560394 124.00364685 C-64.09514112 122.92519411 -64.09514112 122.92519411 -64.09466894 121.82495445 C-64.09294791 116.77796579 -64.09584429 111.73099208 -64.10056305 106.68400574 C-64.10678413 99.88118955 -64.10230417 93.07845904 -64.09077454 86.27564621 C-64.0881383 83.78443907 -64.08887525 81.29322563 -64.09329987 78.80202103 C-64.09879774 75.39110873 -64.09186987 71.98043177 -64.0819397 68.5695343 C-64.08640114 67.59324538 -64.09086258 66.61695646 -64.09545922 65.61108303 C-63.99112655 47.02418848 -58.08583493 30.75794063 -45.14047241 17.13569641 C-42.58476042 14.72652754 -40.27292119 13.2002279 -36.82797241 12.26069641 C-36.82797241 11.60069641 -36.82797241 10.94069641 -36.82797241 10.26069641 C-34.3549785 8.95592662 -31.87557452 7.66704255 -29.39047241 6.38569641 C-28.70275757 6.02089172 -28.01504272 5.65608704 -27.30648804 5.28022766 C-26.61361694 4.92573547 -25.92074585 4.57124329 -25.20687866 4.20600891 C-24.58369751 3.88132629 -23.96051636 3.55664368 -23.31845093 3.22212219 C-15.67236609 0.27042314 -8.11651219 -0.02852947 0 0 Z M27.17202759 62.26069641 C27.17202759 105.49069641 27.17202759 148.72069641 27.17202759 193.26069641 C35.09202759 193.59069641 43.01202759 193.92069641 51.17202759 194.26069641 C55.8186673 194.72968955 60.32760171 195.22142776 64.92202759 195.94819641 C66.0419812 196.12189758 67.16193481 196.29559875 68.31582642 196.4745636 C83.57666212 198.98701162 97.37633942 203.26624108 110.98452759 210.62397766 C113.48494551 211.90789324 115.43492509 212.78854623 118.17202759 213.26069641 C118.17202759 213.92069641 118.17202759 214.58069641 118.17202759 215.26069641 C120.48202759 216.58069641 122.79202759 217.90069641 125.17202759 219.26069641 C125.38272462 203.65719082 125.54119707 188.05407226 125.63833714 172.44949532 C125.68465016 165.2031345 125.74773262 157.95765999 125.85098267 150.71186829 C125.94098446 144.3927622 125.99882034 138.0742982 126.01882404 131.75456893 C126.0305109 128.41074651 126.06254392 125.0702074 126.1235981 121.72670364 C126.18919864 117.98449819 126.19791878 114.24606255 126.1937561 110.50337219 C126.24229233 108.86014229 126.24229233 108.86014229 126.29180908 107.18371582 C126.19986617 99.51540713 123.94618801 95.78352654 118.56262112 90.37789726 C94.68989144 69.2352969 58.25083329 62.26069641 27.17202759 62.26069641 Z M146.17202759 87.26069641 C146.17202759 87.92069641 146.17202759 88.58069641 146.17202759 89.26069641 C145.51202759 89.26069641 144.85202759 89.26069641 144.17202759 89.26069641 C139.57222685 93.43727056 136.7679498 97.68428988 136.33024597 103.93661499 C136.31015958 106.08765578 136.32810578 108.23927595 136.37734985 110.3898468 C136.37632767 111.57134308 136.37530548 112.75283936 136.37425232 113.97013855 C136.37910426 117.85047918 136.43344021 121.72842636 136.48843384 125.60835266 C136.50540498 128.30832602 136.51180309 131.00829707 136.51844788 133.70831299 C136.54013172 140.07267031 136.59747334 146.43617743 136.6678943 152.80016178 C136.74636621 160.05041423 136.78468119 167.30070911 136.81976235 174.55128109 C136.89276445 189.45489176 137.01574377 204.35770871 137.17202759 219.26069641 C138.08517479 218.64798889 138.08517479 218.64798889 139.01676941 218.02290344 C139.82025314 217.48520325 140.62373688 216.94750305 141.4515686 216.39350891 C142.64315331 215.59517639 142.64315331 215.59517639 143.85881042 214.78071594 C159.56730312 204.45863461 176.72251928 199.08460074 195.17202759 196.26069641 C196.31155884 196.06733704 197.45109009 195.87397766 198.62515259 195.67475891 C210.87419273 193.77972804 222.58246188 193.76427904 235.17202759 193.26069641 C235.17202759 150.03069641 235.17202759 106.80069641 235.17202759 62.26069641 C205.8656855 62.26069641 169.9717174 68.83258752 146.17202759 87.26069641 Z " fill="#E4F0FE" transform="translate(118.82797241210938,54.73930358886719)"/>
<path d="M0 0 C10.13244258 3.44163696 19.92859694 7.87048788 29.28125 13.06640625 C30.70244141 13.84564453 30.70244141 13.84564453 32.15234375 14.640625 C32.85488281 15.11113281 33.55742187 15.58164063 34.28125 16.06640625 C34.28125 16.72640625 34.28125 17.38640625 34.28125 18.06640625 C34.85359375 18.32164062 35.4259375 18.576875 36.015625 18.83984375 C38.52298733 20.19727784 40.4142956 21.78614729 42.53125 23.69140625 C43.23765625 24.32304687 43.9440625 24.9546875 44.671875 25.60546875 C45.46851563 26.32863281 45.46851563 26.32863281 46.28125 27.06640625 C49.74814423 25.57611235 51.9726485 23.57005345 54.65625 20.94140625 C78.97455236 -1.24058844 118.73930993 -8.11052894 150.40625 -8.37109375 C151.2828125 -8.38124512 152.159375 -8.39139648 153.0625 -8.40185547 C155.4765625 -8.3671875 155.4765625 -8.3671875 159.28125 -7.93359375 C161.41729308 -4.72952913 161.52333908 -3.93758628 161.4765625 -0.265625 C161.46689453 1.07338867 161.46689453 1.07338867 161.45703125 2.43945312 C161.43189453 3.83260742 161.43189453 3.83260742 161.40625 5.25390625 C161.39722656 6.19427734 161.38820313 7.13464844 161.37890625 8.10351562 C161.35534056 10.42473593 161.32244116 12.74544269 161.28125 15.06640625 C162.51101563 15.04900391 162.51101563 15.04900391 163.765625 15.03125 C164.84328125 15.02222656 165.9209375 15.01320312 167.03125 15.00390625 C168.63226563 14.98650391 168.63226563 14.98650391 170.265625 14.96875 C172.81493501 15.05130538 174.86058591 15.32023067 177.28125 16.06640625 C177.28125 16.72640625 177.28125 17.38640625 177.28125 18.06640625 C177.94125 18.06640625 178.60125 18.06640625 179.28125 18.06640625 C179.28125 18.72640625 179.28125 19.38640625 179.28125 20.06640625 C179.94125 20.06640625 180.60125 20.06640625 181.28125 20.06640625 C183.34043702 23.47018526 183.53434084 26.10346682 183.54194641 30.04977417 C183.54903122 31.27506836 183.55611603 32.50036255 183.56341553 33.76278687 C183.56112177 35.11773719 183.55861208 36.47268715 183.5559082 37.82763672 C183.56025621 39.25689968 183.56543965 40.68616031 183.57139587 42.11541748 C183.58478876 45.99565128 183.58536415 49.87578769 183.58283257 53.7560401 C183.5817629 56.99655126 183.58664623 60.23704272 183.591438 63.47754967 C183.60253453 71.12388274 183.60297 78.77016668 183.59692383 86.41650391 C183.59088519 94.30089442 183.60319187 102.18510642 183.6244939 110.06946647 C183.6421171 116.84157093 183.64811006 123.61361862 183.64485615 130.38574517 C183.64304404 134.42910688 183.64567212 138.4723413 183.65957069 142.51568222 C183.67215589 146.31932316 183.67019855 150.12268622 183.65715981 153.92632294 C183.65479583 155.32028167 183.65752233 156.71426 183.66578293 158.10819626 C183.67626638 160.0151288 183.66633819 161.92214065 183.6554718 163.82907104 C183.65572341 165.4279633 183.65572341 165.4279633 183.65598011 167.05915642 C183.08059678 171.67667013 181.26153645 174.96563379 178.19148254 178.4130249 C174.01365983 180.7865583 170.44498113 180.59618265 165.7175293 180.52050781 C164.76094925 180.52109192 163.8043692 180.52167603 162.81880188 180.52227783 C159.66398553 180.51949606 156.5101196 180.48839897 153.35546875 180.45703125 C151.16543596 180.44956921 148.97539648 180.4438761 146.78535461 180.43988037 C141.02633165 180.42462124 135.26771337 180.38533656 129.5088501 180.34106445 C123.63030471 180.30011805 117.75169382 180.28187067 111.87304688 180.26171875 C100.34227029 180.21884296 88.81179382 180.15058787 77.28125 180.06640625 C77.30445313 181.32066406 77.32765625 182.57492187 77.3515625 183.8671875 C77.4283241 188.01657866 76.62664446 190.54831455 74.28125 194.06640625 C68.96317279 199.44260452 64.4687907 200.23455717 57.140625 200.3046875 C56.3402179 200.31275925 55.53981079 200.32083099 54.71514893 200.32914734 C53.02057043 200.34297226 51.32596427 200.35370153 49.63134766 200.36157227 C47.90502723 200.37308107 46.17874207 200.3935156 44.45263672 200.4230957 C41.95255456 200.46593648 39.45352946 200.48196458 36.953125 200.4921875 C36.18933533 200.50969559 35.42554565 200.52720367 34.63861084 200.54524231 C29.07877048 200.5229775 25.87921793 199.21095339 21.28125 196.06640625 C19.72265625 194.20703125 19.72265625 194.20703125 18.84375 192.31640625 C18.53566406 191.7028125 18.22757812 191.08921875 17.91015625 190.45703125 C16.99325164 186.97165472 17.24448077 183.66842007 17.28125 180.06640625 C16.0668222 180.07750931 14.85239441 180.08861237 13.60116577 180.10005188 C2.15395687 180.20142901 -9.2931609 180.27637245 -20.74071693 180.32546711 C-26.62600037 180.35155584 -32.51092129 180.38694165 -38.39599609 180.44360352 C-44.07591691 180.49794764 -49.75548913 180.52783223 -55.43564987 180.54079247 C-57.60221214 180.55002792 -59.76875543 180.56806274 -61.93516922 180.59505653 C-64.97103282 180.63137788 -68.00545783 180.63635019 -71.04150391 180.6340332 C-71.93630463 180.65200958 -72.83110535 180.66998596 -73.75302124 180.68850708 C-78.05079308 180.65303791 -80.84983064 180.40934154 -84.26107788 177.65592957 C-87.80228243 173.92474359 -87.84552542 172.20864306 -87.85919189 167.16496277 C-87.86775711 165.27849281 -87.86775711 165.27849281 -87.87649536 163.35391235 C-87.87774078 161.95233164 -87.87886587 160.55075082 -87.87988281 159.14916992 C-87.88451004 157.67917252 -87.88953457 156.20917631 -87.89492798 154.73918152 C-87.90806391 150.73909226 -87.91449935 146.7390198 -87.91893864 142.73891234 C-87.92186768 140.24062037 -87.92597218 137.74233301 -87.93044281 135.24404335 C-87.9441214 127.42988709 -87.95378606 119.61574134 -87.9576447 111.80157393 C-87.96212533 102.77692713 -87.97967186 93.7524318 -88.0086453 84.72783107 C-88.03025429 77.75536799 -88.04034858 70.78294754 -88.04168582 63.81045133 C-88.04273449 59.64467986 -88.04865527 55.4790507 -88.06650543 51.31331444 C-88.08297248 47.39399202 -88.08514837 43.47491908 -88.07636642 39.55557442 C-88.07559529 38.11765246 -88.07994889 36.67971717 -88.08982468 35.24182892 C-88.10252385 33.27752685 -88.09488304 31.31312477 -88.08624268 29.34880066 C-88.08770924 28.24985568 -88.0891758 27.1509107 -88.0906868 26.01866436 C-87.6681515 22.6647793 -86.75575419 20.74592967 -84.71875 18.06640625 C-84.05875 18.06640625 -83.39875 18.06640625 -82.71875 18.06640625 C-82.71875 17.40640625 -82.71875 16.74640625 -82.71875 16.06640625 C-77.55483171 14.34510015 -72.12583764 15.01287073 -66.71875 15.06640625 C-66.71875 8.13640625 -66.71875 1.20640625 -66.71875 -5.93359375 C-49.75549195 -14.41522278 -17.41346786 -5.37058403 0 0 Z M-56.71875 3.06640625 C-56.71875 46.29640625 -56.71875 89.52640625 -56.71875 134.06640625 C-48.79875 134.39640625 -40.87875 134.72640625 -32.71875 135.06640625 C-28.07211029 135.53539939 -23.56317588 136.0271376 -18.96875 136.75390625 C-17.84879639 136.92760742 -16.72884277 137.10130859 -15.57495117 137.28027344 C-0.31411547 139.79272146 13.48556183 144.07195092 27.09375 151.4296875 C29.59416792 152.71360307 31.5441475 153.59425607 34.28125 154.06640625 C34.28125 154.72640625 34.28125 155.38640625 34.28125 156.06640625 C36.59125 157.38640625 38.90125 158.70640625 41.28125 160.06640625 C41.49194703 144.46290066 41.65041948 128.8597821 41.74755955 113.25520515 C41.79387257 106.00884434 41.85695503 98.76336983 41.96020508 91.51757812 C42.05020687 85.19847204 42.10804275 78.88000804 42.12804645 72.56027877 C42.13973331 69.21645635 42.17176633 65.87591724 42.23282051 62.53241348 C42.29842105 58.79020803 42.30714119 55.05177239 42.30297852 51.30908203 C42.35151474 49.66585213 42.35151474 49.66585213 42.40103149 47.98942566 C42.30908858 40.32111697 40.05541042 36.58923638 34.67184353 31.1836071 C10.79911385 10.04100674 -25.63994429 3.06640625 -56.71875 3.06640625 Z M62.28125 28.06640625 C62.28125 28.72640625 62.28125 29.38640625 62.28125 30.06640625 C61.62125 30.06640625 60.96125 30.06640625 60.28125 30.06640625 C55.68144926 34.2429804 52.87717221 38.48999972 52.43946838 44.74232483 C52.419382 46.89336562 52.43732819 49.04498579 52.48657227 51.19555664 C52.48555008 52.37705292 52.48452789 53.55854919 52.48347473 54.77584839 C52.48832667 58.65618902 52.54266263 62.5341362 52.59765625 66.4140625 C52.61462739 69.11403586 52.6210255 71.81400691 52.62767029 74.51402283 C52.64935413 80.87838015 52.70669575 87.24188727 52.77711672 93.60587162 C52.85558862 100.85612407 52.89390361 108.10641895 52.92898476 115.35699093 C53.00198686 130.26060159 53.12496618 145.16341855 53.28125 160.06640625 C54.1943972 159.45369873 54.1943972 159.45369873 55.12599182 158.82861328 C55.92947556 158.29091309 56.73295929 157.75321289 57.56079102 157.19921875 C58.75237572 156.40088623 58.75237572 156.40088623 59.96803284 155.58642578 C75.67652553 145.26434445 92.83174169 139.89031058 111.28125 137.06640625 C112.42078125 136.87304688 113.5603125 136.6796875 114.734375 136.48046875 C126.98341514 134.58543788 138.6916843 134.56998888 151.28125 134.06640625 C151.28125 90.83640625 151.28125 47.60640625 151.28125 3.06640625 C121.97490791 3.06640625 86.08093981 9.63829736 62.28125 28.06640625 Z " fill="#7DACCC" transform="translate(202.71875,113.93359375)"/>
<path d="M0 0 C10.13244258 3.44163696 19.92859694 7.87048788 29.28125 13.06640625 C30.70244141 13.84564453 30.70244141 13.84564453 32.15234375 14.640625 C32.85488281 15.11113281 33.55742187 15.58164063 34.28125 16.06640625 C34.28125 16.72640625 34.28125 17.38640625 34.28125 18.06640625 C34.85875 18.31390625 35.43625 18.56140625 36.03125 18.81640625 C38.5815497 20.23323942 40.29910701 21.94268162 42.28125 24.06640625 C41.29125 24.56140625 41.29125 24.56140625 40.28125 25.06640625 C40.61125 26.38640625 40.94125 27.70640625 41.28125 29.06640625 C40.62125 29.06640625 39.96125 29.06640625 39.28125 29.06640625 C39.61125 30.05640625 39.94125 31.04640625 40.28125 32.06640625 C39.62125 32.06640625 38.96125 32.06640625 38.28125 32.06640625 C37.95125 33.05640625 37.62125 34.04640625 37.28125 35.06640625 C36.74951172 34.44765625 36.74951172 34.44765625 36.20703125 33.81640625 C13.69639456 9.39808848 -26.06318657 6.47257996 -56.71875 3.06640625 C-56.71875 46.29640625 -56.71875 89.52640625 -56.71875 134.06640625 C-48.79875 134.06640625 -40.87875 134.06640625 -32.71875 134.06640625 C-28.02216371 134.47966695 -23.58461157 134.92344846 -18.96875 135.69140625 C-17.85097168 135.86816895 -16.73319336 136.04493164 -15.58154297 136.22705078 C-0.50601089 138.75794808 13.6725484 143.06338828 27.28125 150.06640625 C27.28125 151.05640625 27.28125 152.04640625 27.28125 153.06640625 C26.62125 153.06640625 25.96125 153.06640625 25.28125 153.06640625 C25.94125 155.04640625 26.60125 157.02640625 27.28125 159.06640625 C26.29125 160.05640625 25.30125 161.04640625 24.28125 162.06640625 C23.14429688 161.5353125 22.00734375 161.00421875 20.8359375 160.45703125 C11.43949334 156.13341994 2.35435116 152.52262288 -7.71875 150.06640625 C-8.45480469 149.8653125 -9.19085938 149.66421875 -9.94921875 149.45703125 C-27.93115682 144.86589813 -47.2908111 145.49872296 -65.71875 145.06640625 C-66.93830116 142.62730393 -66.84189886 141.07263499 -66.83900452 138.34616089 C-66.84037918 137.35054138 -66.84175385 136.35492188 -66.84317017 135.32913208 C-66.83957489 134.23293549 -66.83597961 133.13673889 -66.83227539 132.00732422 C-66.83242142 130.85611084 -66.83256744 129.70489746 -66.8327179 128.51879883 C-66.83201904 124.69871156 -66.8242279 120.87867254 -66.81640625 117.05859375 C-66.81454197 114.41586331 -66.81311812 111.77313252 -66.81211853 109.13040161 C-66.80900748 102.87600002 -66.80079714 96.62161586 -66.79076904 90.36722195 C-66.77960088 83.24760366 -66.77409568 76.12798454 -66.76907361 69.00835967 C-66.75861435 54.36103264 -66.7408184 39.71372027 -66.71875 25.06640625 C-70.34875 25.06640625 -73.97875 25.06640625 -77.71875 25.06640625 C-77.38875 72.91640625 -77.05875 120.76640625 -76.71875 170.06640625 C-48.33875 170.06640625 -19.95875 170.06640625 9.28125 170.06640625 C9.28125 170.39640625 9.28125 170.72640625 9.28125 171.06640625 C-34.77375 171.56140625 -34.77375 171.56140625 -79.71875 172.06640625 C-80.70875 174.04640625 -80.70875 174.04640625 -81.71875 176.06640625 C-82.70875 176.39640625 -83.69875 176.72640625 -84.71875 177.06640625 C-87.78569324 173.70872814 -88.09506684 171.41470588 -88.09970093 166.92445374 C-88.1081604 165.66405777 -88.11661987 164.4036618 -88.12533569 163.10507202 C-88.11950291 161.7107531 -88.11335842 160.31643546 -88.10693359 158.92211914 C-88.11099929 157.45182404 -88.11634115 155.98153199 -88.12286377 154.51124573 C-88.13654478 150.5194625 -88.13123524 146.52791178 -88.12172651 142.53612447 C-88.11413253 138.35842209 -88.12117493 134.18073966 -88.12588501 130.0030365 C-88.13134393 122.98611883 -88.12414802 115.96929587 -88.10986328 108.95239258 C-88.09354283 100.84189573 -88.09882027 92.73162521 -88.1153425 84.62113386 C-88.12896108 77.65710644 -88.13087502 70.6931471 -88.12302649 63.72911066 C-88.11835119 59.57009735 -88.11772103 55.41119037 -88.12763596 51.25218391 C-88.13630855 47.34101089 -88.13027852 43.43012924 -88.11295319 39.51898766 C-88.10898961 38.08430083 -88.11012021 36.64958944 -88.11674118 35.21491241 C-88.12495115 33.25506471 -88.11282541 31.29516336 -88.09970093 29.33534241 C-88.09856985 28.23899507 -88.09743877 27.14264772 -88.09627342 26.01307774 C-87.66740029 22.66560802 -86.75131061 20.74255678 -84.71875 18.06640625 C-84.05875 18.06640625 -83.39875 18.06640625 -82.71875 18.06640625 C-82.71875 17.40640625 -82.71875 16.74640625 -82.71875 16.06640625 C-77.55483171 14.34510015 -72.12583764 15.01287073 -66.71875 15.06640625 C-66.71875 8.13640625 -66.71875 1.20640625 -66.71875 -5.93359375 C-49.75549195 -14.41522278 -17.41346786 -5.37058403 0 0 Z " fill="#7CABCB" transform="translate(202.71875,113.93359375)"/>
<path d="M0 0 C1.45823212 -0.0270043 2.91660675 -0.04639787 4.375 -0.0625 C5.18710937 -0.07410156 5.99921875 -0.08570313 6.8359375 -0.09765625 C9 0 9 0 11 1 C11.02332793 19.62761115 11.04097865 38.25521935 11.05181217 56.88284206 C11.05697536 65.53135605 11.06401848 74.17986097 11.07543945 82.82836914 C11.08538561 90.36364579 11.09185326 97.89891588 11.09408849 105.43419892 C11.09539572 109.42655852 11.0984823 113.41889936 11.10573006 117.41125298 C11.1124892 121.16467098 11.11461718 124.91806239 11.11310768 128.6714859 C11.11338406 130.05302894 11.11538981 131.43457281 11.11920547 132.81611061 C11.12414099 134.69437145 11.12239796 136.57264638 11.12025452 138.45091248 C11.12117631 139.50452186 11.1220981 140.55813124 11.12304783 141.64366817 C11 144 11 144 10 145 C8.55786001 145.09558036 7.11105921 145.12188394 5.66575623 145.12025452 C4.73041046 145.12162918 3.7950647 145.12300385 2.83137512 145.12442017 C1.79703842 145.12082489 0.76270172 145.11722961 -0.30297852 145.11352539 C-1.38577087 145.11367142 -2.46856323 145.11381744 -3.58416748 145.1139679 C-7.18243374 145.11326823 -10.78064897 145.10547333 -14.37890625 145.09765625 C-16.86612418 145.09579226 -19.35334248 145.09436827 -21.84056091 145.09336853 C-27.73021191 145.0899335 -33.6198439 145.08204277 -39.50948709 145.07201904 C-46.87025374 145.05976246 -54.23102264 145.05437791 -61.59179688 145.04882812 C-74.72787398 145.03808815 -87.86393583 145.02120089 -101 145 C-99.11460665 140.69905195 -96.33121706 138.93608721 -92.375 136.625 C-91.37400269 136.03682495 -91.37400269 136.03682495 -90.3527832 135.43676758 C-66.48903185 121.84849959 -39.11936634 119.93513933 -12.24731445 119.34106445 C-10.93851318 119.30972412 -9.62971191 119.27838379 -8.28125 119.24609375 C-7.09595703 119.22216553 -5.91066406 119.1982373 -4.68945312 119.17358398 C-2.08240173 119.30243336 -2.08240173 119.30243336 -1 118 C-0.89205032 116.4695654 -0.85317012 114.9342039 -0.84178162 113.40000916 C-0.8319928 112.40576431 -0.82220398 111.41151947 -0.81211853 110.387146 C-0.80636307 109.28735413 -0.8006076 108.18756226 -0.79467773 107.05444336 C-0.78477814 105.90337601 -0.77487854 104.75230865 -0.76467896 103.56636047 C-0.73295338 99.74087621 -0.70826297 95.9153795 -0.68359375 92.08984375 C-0.66303376 89.44568041 -0.64203756 86.80152043 -0.62062073 84.15736389 C-0.57064394 77.89587961 -0.52572369 71.63436955 -0.48259836 65.37283474 C-0.4332685 58.24595156 -0.37833466 51.11911508 -0.32291877 43.99227703 C-0.20902223 29.32822888 -0.10219997 14.66413427 0 0 Z " fill="#C3DCF1" transform="translate(364,139)"/>
<path d="M0 0 C3.63 0 7.26 0 11 0 C11.33 39.6 11.66 79.2 12 120 C22.23 120 32.46 120 43 120 C65.14094824 121.67101496 87.18438462 126.78322603 106 139 C106.68191406 139.41636719 107.36382812 139.83273437 108.06640625 140.26171875 C109.75 141.3125 109.75 141.3125 112 143 C112 143.66 112 144.32 112 145 C75.37 145 38.74 145 1 145 C-0.33302502 142.33394996 -0.12286972 140.31721627 -0.12025452 137.33065796 C-0.12162918 136.1246846 -0.12300385 134.91871124 -0.12442017 133.67619324 C-0.12088081 132.33279394 -0.11724599 130.9893949 -0.11352539 129.64599609 C-0.11324344 128.23685203 -0.11340141 126.82770782 -0.1139679 125.41856384 C-0.11425555 121.58614708 -0.10836398 117.75376143 -0.10139394 113.92135191 C-0.09515508 109.9188118 -0.09455618 105.91627103 -0.09336853 101.91372681 C-0.09025679 94.33122791 -0.08204551 86.74874338 -0.07201904 79.16625082 C-0.06085304 70.53517354 -0.05534622 61.90409558 -0.05032361 53.27301288 C-0.03986277 35.51533354 -0.02206562 17.75766845 0 0 Z " fill="#C3DCF2" transform="translate(125,139)"/>
<path d="M0 0 C4.20362508 1.52859094 6.7542389 3.09946756 9 7 C10.83707465 12.95108691 11.30348169 20.27902333 8.4375 25.9375 C4.6892146 30.64688422 1.4276099 32.70187247 -4.5625 33.4375 C-9.05118532 32.86621278 -12.20324808 31.41173365 -15.75 28.625 C-19.94745389 23.16830995 -19.72003382 16.55141884 -19 10 C-17.3125 6.5 -17.3125 6.5 -15 4 C-13.948125 2.824375 -13.948125 2.824375 -12.875 1.625 C-8.61395209 -0.78341838 -4.78503151 -0.63647054 0 0 Z " fill="#7FABC9" transform="translate(174,346)"/>
<path d="M0 0 C3.91075925 1.98968453 5.57689098 3.36533646 8 7 C9.82791116 13.39768908 9.69914594 19.92692163 7 26 C5.02270026 29.1071853 3.59748877 30.69430807 0.3125 32.375 C-5.2199569 33.41885979 -9.96631201 33.19368643 -14.875 30.3125 C-19.68390382 25.07928113 -20.50662431 20.5474476 -20.28125 13.6171875 C-19.73961252 8.57694985 -17.76188747 5.87617059 -14.5 2.125 C-10.21204565 -1.18744474 -5.13643777 -0.83953663 0 0 Z " fill="#81ACCB" transform="translate(368,346)"/>
<path d="M0 0 C3.88158445 3.88158445 4.2988985 7.20903849 4.4375 12.5 C4.27667224 17.37474484 3.91372259 20.94160067 1 25 C0.505 25.763125 0.01 26.52625 -0.5 27.3125 C-4.65016323 30.11386018 -9.07656815 30.2924811 -14 30 C-17.75078711 28.85111026 -20.26406768 26.96796746 -22.66015625 23.81640625 C-24.36015701 20.24293527 -24.43352482 17.50985322 -24.4375 13.5625 C-24.45683594 12.28503906 -24.47617188 11.00757813 -24.49609375 9.69140625 C-23.80978027 4.58458547 -21.58727951 1.58727951 -18 -2 C-11.86111839 -4.36110831 -5.34013285 -3.64099967 0 0 Z " fill="#7FABCA" transform="translate(146,349)"/>
<path d="M0 0 C-3.24509304 2.03977277 -6.40608886 3.66511872 -10 5 C-10 5.66 -10 6.32 -10 7 C-11.65 7 -13.3 7 -15 7 C-15.12375 7.7425 -15.2475 8.485 -15.375 9.25 C-15.95895867 11.81941815 -16.73599412 13.70898935 -18 16 C-18.33 16.66 -18.66 17.32 -19 18 C-19.66666667 19.33333333 -20.33333333 20.66666667 -21 22 C-21.66 22 -22.32 22 -23 22 C-23 22.66 -23 23.32 -23 24 C-23.66 24 -24.32 24 -25 24 C-25.226875 24.556875 -25.45375 25.11375 -25.6875 25.6875 C-27.95600449 29.68438886 -30.61899946 32.53966649 -35 34 C-35 34.99 -35 35.98 -35 37 C-35.99 36.34 -36.98 35.68 -38 35 C-37.67 35.99 -37.34 36.98 -37 38 C-38.65 37.67 -40.3 37.34 -42 37 C-42.33 75.94 -42.66 114.88 -43 155 C-43.33 155 -43.66 155 -44 155 C-44.00331015 154.37401004 -44.00662029 153.74802008 -44.01003075 153.10306072 C-44.09120614 137.8802775 -44.18328052 122.65760272 -44.28752708 107.43496227 C-44.3376761 100.07344331 -44.3841187 92.71193561 -44.421875 85.3503418 C-44.45478787 78.934929 -44.49461508 72.51960304 -44.54279006 66.10428602 C-44.56806218 62.70655866 -44.58984126 59.30888896 -44.60334396 55.91109276 C-44.62014421 52.12053249 -44.64916448 48.33025309 -44.68115234 44.53979492 C-44.68331253 43.40979065 -44.68547272 42.27978638 -44.68769836 41.11553955 C-44.69886185 40.08488876 -44.71002533 39.05423798 -44.7215271 37.99235535 C-44.72705786 37.09545077 -44.73258862 36.1985462 -44.73828697 35.2744627 C-44.85703112 32.72050629 -44.85703112 32.72050629 -47 30 C-46.74438677 27.6568787 -46.40729228 25.32156597 -46 23 C-46 21.68 -46 20.36 -46 19 C-44.1875 18.3125 -44.1875 18.3125 -42 18 C-40.25 19.4375 -40.25 19.4375 -39 21 C-35.53310577 19.5097061 -33.3086015 17.5036472 -30.625 14.875 C-24.06433858 8.85782532 -9.21080883 -3.07026961 0 0 Z " fill="#91BBD6" transform="translate(288,120)"/>
<path d="M0 0 C2.97 0 5.94 0 9 0 C9.38671875 1.16015625 9.7734375 2.3203125 10.171875 3.515625 C10.54771729 4.64291016 10.54771729 4.64291016 10.93115234 5.79296875 C11.47874321 7.43606788 12.02594136 9.07929794 12.57275391 10.72265625 C13.80255875 14.41716163 15.0343386 18.11074833 16.2890625 21.796875 C16.64742188 22.85390625 17.00578125 23.9109375 17.375 25 C17.69210937 25.928125 18.00921875 26.85625 18.3359375 27.8125 C19 30 19 30 19 32 C16.69 32 14.38 32 12 32 C11.34 29.69 10.68 27.38 10 25 C6.37 25 2.74 25 -1 25 C-1.66 27.31 -2.32 29.62 -3 32 C-4.98 32 -6.96 32 -9 32 C-7.52143235 24.83865468 -5.5420279 17.91867727 -3.375 10.9375 C-3.05015625 9.88111328 -2.7253125 8.82472656 -2.390625 7.73632812 C-1.59685528 5.15657652 -0.79992286 2.57784892 0 0 Z " fill="#7FABC9" transform="translate(253,346)"/>
<path d="M0 0 C2.05078125 0.03255208 4.1015625 0.06510417 6.15234375 0.09765625 C7.58032205 4.33221955 9.00438479 8.56807289 10.42480469 12.80517578 C10.90875066 14.24694502 11.39377214 15.68835371 11.87988281 17.12939453 C12.57769087 19.19860904 13.27164373 21.26908168 13.96484375 23.33984375 C14.38378906 24.58620605 14.80273438 25.83256836 15.234375 27.11669922 C16.15234375 30.09765625 16.15234375 30.09765625 16.15234375 32.09765625 C13.84234375 32.09765625 11.53234375 32.09765625 9.15234375 32.09765625 C8.82234375 29.45765625 8.49234375 26.81765625 8.15234375 24.09765625 C4.19234375 24.09765625 0.23234375 24.09765625 -3.84765625 24.09765625 C-4.50765625 26.73765625 -5.16765625 29.37765625 -5.84765625 32.09765625 C-7.82765625 32.09765625 -9.80765625 32.09765625 -11.84765625 32.09765625 C-10.41040894 25.1064231 -8.47485321 18.38797423 -6.28515625 11.59765625 C-5.96869141 10.59734375 -5.65222656 9.59703125 -5.32617188 8.56640625 C-2.6296266 0.13898661 -2.6296266 0.13898661 0 0 Z " fill="#7DAACA" transform="translate(305.84765625,345.90234375)"/>
<path d="M0 0 C-0.33 1.65 -0.66 3.3 -1 5 C-1.680625 4.835 -2.36125 4.67 -3.0625 4.5 C-7.58177712 3.73076134 -11.62962405 3.54320802 -16 5 C-17.22193249 8.08994423 -17.1340375 11.21034957 -17.125 14.5 C-17.12886719 15.90765625 -17.12886719 15.90765625 -17.1328125 17.34375 C-17.01392868 19.7214263 -16.67551722 21.72683096 -16 24 C-14.7625 24.165 -13.525 24.33 -12.25 24.5 C-11.55390625 24.5928125 -10.8578125 24.685625 -10.140625 24.78125 C-7.69541605 25.06777357 -7.69541605 25.06777357 -4 25 C-4 22.69 -4 20.38 -4 18 C-6.31 18 -8.62 18 -11 18 C-11 16.35 -11 14.7 -11 13 C-7.04 13 -3.08 13 1 13 C1 17.95 1 22.9 1 28 C-3.19375203 30.09687602 -5.33240935 30.32585282 -9.9375 30.375 C-11.74541016 30.41753906 -11.74541016 30.41753906 -13.58984375 30.4609375 C-17.60454166 29.91828646 -19.16447412 28.83552588 -22 26 C-25.175881 20.5243431 -26.04005423 15.27957268 -25 9 C-23.26857811 4.61965061 -21.05209449 1.76515963 -17.25 -1 C-11.32171695 -2.82408709 -5.60762975 -2.89426051 0 0 Z " fill="#7EA9C8" transform="translate(406,348)"/>
<path d="M0 0 C1.98 0 3.96 0 6 0 C6 4.29 6 8.58 6 13 C6.66 13 7.32 13 8 13 C8.20625 12.34 8.4125 11.68 8.625 11 C10.51957356 6.86638497 12.64087435 3.11648001 16 0 C19.875 -0.5 19.875 -0.5 23 0 C20.38888348 4.83540096 17.62542917 8.87103901 14 13 C15.89301536 18.17232986 18.70024214 22.65693138 21.5390625 27.35546875 C23 30 23 30 23 32 C20.2734375 32.375 20.2734375 32.375 17 32 C14.6640625 29.375 14.6640625 29.375 12.625 26 C11.59246094 24.329375 11.59246094 24.329375 10.5390625 22.625 C9.77722656 21.325625 9.77722656 21.325625 9 20 C8.34 20.33 7.68 20.66 7 21 C6.5316735 23.58605332 6.5316735 23.58605332 6.375 26.5625 C6.26285156 28.08037109 6.26285156 28.08037109 6.1484375 29.62890625 C6.09945312 30.41136719 6.05046875 31.19382812 6 32 C4.02 32 2.04 32 0 32 C0 21.44 0 10.88 0 0 Z " fill="#7EACCB" transform="translate(190,346)"/>
<path d="M0 0 C0.33 0 0.66 0 1 0 C1 6.27 1 12.54 1 19 C1.99 18.01 2.98 17.02 4 16 C4.66 16 5.32 16 6 16 C6 19.3 6 22.6 6 26 C9.3 25.34 12.6 24.68 16 24 C15.5547002 19.36980013 15.5547002 19.36980013 14 18 C11.67182036 17.63239269 9.3381615 17.29758419 7 17 C8.32 16.34 9.64 15.68 11 15 C9.68 14.34 8.36 13.68 7 13 C9.31 12.34 11.62 11.68 14 11 C14.33 9.35 14.66 7.7 15 6 C12.36 5.34 9.72 4.68 7 4 C6.67 2.68 6.34 1.36 6 0 C7.91541138 -0.10841951 9.83259773 -0.18578079 11.75 -0.25 C13.35101563 -0.31960938 13.35101563 -0.31960938 14.984375 -0.390625 C18 0 18 0 20.359375 1.828125 C22 4 22 4 22.5 7 C21.90092877 10.5944274 20.7822335 11.73943528 18 14 C18.639375 14.309375 19.27875 14.61875 19.9375 14.9375 C22.69098722 17.69098722 22.83646185 19.8968629 23.41015625 23.6484375 C22.74409114 27.4672108 21.09657362 28.75616302 18 31 C14.86103913 31.58976407 11.8667325 31.47434038 8.6875 31.3125 C4.3871875 31.1578125 4.3871875 31.1578125 0 31 C0 20.77 0 10.54 0 0 Z " fill="#7CA8C7" transform="translate(94,347)"/>
<path d="M0 0 C13.2 0 26.4 0 40 0 C39.67 2.64 39.34 5.28 39 8 C35.96510104 9.51744948 32.80324014 9.1835738 29.47265625 9.203125 C28.35557533 9.21167511 28.35557533 9.21167511 27.21592712 9.22039795 C25.63981549 9.22984791 24.06368409 9.23638192 22.48754883 9.24023438 C20.07533397 9.24994832 17.66396823 9.28097361 15.25195312 9.3125 C13.72135923 9.31902932 12.19075924 9.32428007 10.66015625 9.328125 C9.57723045 9.3466452 9.57723045 9.3466452 8.47242737 9.36553955 C5.64725173 9.35296042 3.49732263 9.28790102 1.02124023 7.85449219 C0 6 0 6 0 0 Z " fill="#C1DCF3" transform="translate(230,294)"/>
<path d="M0 0 C0.639375 0.33 1.27875 0.66 1.9375 1 C1.6075 2.65 1.2775 4.3 0.9375 6 C0.18984375 5.88140625 -0.5578125 5.7628125 -1.328125 5.640625 C-7.33232914 4.61402938 -7.33232914 4.61402938 -12.6875 6.8125 C-15.73909215 11.66730569 -15.57749022 15.72545984 -14.3125 21.3125 C-13.32204082 24.04192743 -13.32204082 24.04192743 -11.3125 25.19140625 C-8.55746158 26.18149818 -6.70218603 26.00522185 -3.8125 25.625 C-2.92046875 25.51414062 -2.0284375 25.40328125 -1.109375 25.2890625 C-0.43390625 25.19367188 0.2415625 25.09828125 0.9375 25 C1.2675 26.32 1.5975 27.64 1.9375 29 C-3.61531026 31.95362248 -7.92805393 32.82918028 -14.0625 31 C-18.35751485 28.62403434 -20.57682137 25.63854415 -22.0625 21 C-22.70024566 15.55691498 -22.98820358 9.92199991 -20.4375 4.9375 C-15.0706065 -1.70049986 -7.83990592 -2.55996928 0 0 Z " fill="#7EAAC9" transform="translate(238.0625,347)"/>
<path d="M0 0 C2.84780619 2.23206431 3.84997666 3.54992999 5 7 C5.43315845 12.6310599 4.59184754 16.10428798 2 21 C-1 23 -1 23 -4.5 22.9375 C-8 22 -8 22 -9.875 19.5625 C-10.24625 18.716875 -10.6175 17.87125 -11 17 C-11.33 16.34 -11.66 15.68 -12 15 C-12.50866466 8.89602404 -12.05703618 5.89230834 -8 1 C-5.15916359 -0.42041821 -3.14522722 -0.31452272 0 0 Z " fill="#DFEEFB" transform="translate(173,351)"/>
<path d="M0 0 C2.30275556 1.8670991 3.67823871 3.35647741 5 6 C5.12207871 7.78859511 5.17548448 9.58228381 5.1875 11.375 C5.20167969 12.33148438 5.21585938 13.28796875 5.23046875 14.2734375 C4.99465647 17.06321669 4.48837326 18.65356102 3 21 C0.43734514 22.92199114 -0.83198949 23.01028636 -4.0625 22.8125 C-7.05890525 21.98370706 -8.15408683 21.42883312 -10 19 C-11.95888193 15.08223614 -11.35831645 10.28126375 -11 6 C-8.52518444 0.37541918 -6.04883857 -0.60488386 0 0 Z " fill="#E0EFFC" transform="translate(139,351)"/>
<path d="M0 0 C2.38335758 3.57503638 2.43645585 6.29521591 2.5 10.4375 C2.5515625 11.75621094 2.603125 13.07492187 2.65625 14.43359375 C2 18 2 18 -0.8671875 20.47265625 C-4 22 -4 22 -6.625 22 C-9.58289258 20.75457155 -10.98132423 19.50349231 -13 17 C-14.07782856 11.1797258 -14.03965949 5.75442538 -11 0.625 C-6.72085637 -1.69286947 -4.68301071 -1.22833068 0 0 Z " fill="#E2F0FD" transform="translate(368,352)"/>
<path d="M0 0 C8.25 0 16.5 0 25 0 C25 1.65 25 3.3 25 5 C22.03 5 19.06 5 16 5 C16 13.91 16 22.82 16 32 C14.02 32 12.04 32 10 32 C10 23.09 10 14.18 10 5 C6.7 5 3.4 5 0 5 C0 3.35 0 1.7 0 0 Z " fill="#7CA9C8" transform="translate(270,346)"/>
<path d="M0 0 C5.28 0 10.56 0 16 0 C16 0.33 16 0.66 16 1 C11.545 1.495 11.545 1.495 7 2 C7 2.99 7 3.98 7 5 C7.928125 4.95875 8.85625 4.9175 9.8125 4.875 C13 5 13 5 16 7 C15.64950425 10.24208567 15.43778819 11.61527704 12.9375 13.8125 C12.298125 14.204375 11.65875 14.59625 11 15 C12.2065625 16.0828125 12.2065625 16.0828125 13.4375 17.1875 C16.02292072 20.02515689 16.68042813 21.27166147 17 25 C13.91111478 27.05925681 13.29064073 27.2390374 9.8125 27.125 C8.554375 27.08375 7.29625 27.0425 6 27 C6 23.7 6 20.4 6 17 C5.34 17.66 4.68 18.32 4 19 C3.01 19.33 2.02 19.66 1 20 C0.67 13.4 0.34 6.8 0 0 Z " fill="#83B0CF" transform="translate(94,346)"/>
<path d="M0 0 C1.98 0 3.96 0 6 0 C6 8.91 6 17.82 6 27 C9.96 27 13.92 27 18 27 C18 28.65 18 30.3 18 32 C12.06 32 6.12 32 0 32 C0 21.44 0 10.88 0 0 Z " fill="#84AECB" transform="translate(327,346)"/>
<path d="M0 0 C1.2065625 0.0309375 1.2065625 0.0309375 2.4375 0.0625 C1.80593005 5.11505964 0.30290627 9.35843201 -1.5625 14.0625 C1.0775 14.0625 3.7175 14.0625 6.4375 14.0625 C6.7675 15.3825 7.0975 16.7025 7.4375 18.0625 C2.4875 18.5575 2.4875 18.5575 -2.5625 19.0625 C-3.2225 21.3725 -3.8825 23.6825 -4.5625 26.0625 C-6.5425 26.0625 -8.5225 26.0625 -10.5625 26.0625 C-9.39231326 20.1051857 -7.80180991 14.35407791 -6 8.5625 C-5.66705933 7.48452148 -5.66705933 7.48452148 -5.32739258 6.38476562 C-3.33913136 0.08144223 -3.33913136 0.08144223 0 0 Z " fill="#7DAAC7" transform="translate(254.5625,351.9375)"/>
<path d="M0 0 C2.64 0 5.28 0 8 0 C10.31 6.93 12.62 13.86 15 21 C14.34 21.33 13.68 21.66 13 22 C12.34 21.34 11.68 20.68 11 20 C8.33050591 19.75684344 8.33050591 19.75684344 5.375 19.875 C4.37210937 19.89304687 3.36921875 19.91109375 2.3359375 19.9296875 C1.56507813 19.95289063 0.79421875 19.97609375 0 20 C0.59924224 15.80530429 1.57499941 11.99000166 3 8 C4.65 8 6.3 8 8 8 C7.01 6.35 6.02 4.7 5 3 C3.02 3.33 1.04 3.66 -1 4 C-0.67 2.68 -0.34 1.36 0 0 Z " fill="#80ACC9" transform="translate(304,346)"/>
<path d="M0 0 C2.97 0 5.94 0 9 0 C9.625 2.375 9.625 2.375 10 5 C9.34 5.66 8.68 6.32 8 7 C7.74181233 11.47525292 8.14313034 15.60854301 9 20 C6.03 20 3.06 20 0 20 C0.20496094 19.32453125 0.40992188 18.6490625 0.62109375 17.953125 C1.02521484 16.61507813 1.02521484 16.61507813 1.4375 15.25 C1.70433594 14.36828125 1.97117188 13.4865625 2.24609375 12.578125 C2.88468494 10.39434165 3.46775833 8.21164502 4 6 C3.01 6.33 2.02 6.66 1 7 C0.34 6.67 -0.32 6.34 -1 6 C-0.67 4.02 -0.34 2.04 0 0 Z " fill="#84AECB" transform="translate(253,346)"/>
<path d="M0 0 C7.37042925 -0.36248013 7.37042925 -0.36248013 10.0625 1.1875 C11 3 11 3 10.8125 5.625 C10 8 10 8 8 9 C5.3276379 9.13415472 2.67749512 9.04318541 0 9 C0 6.03 0 3.06 0 0 Z " fill="#D3EBFA" transform="translate(100,364)"/>
<path d="M0 0 C1.05960937 0.00676758 1.05960937 0.00676758 2.140625 0.01367188 C3.88545275 0.02546125 5.630237 0.04339676 7.375 0.0625 C7.375 1.7125 7.375 3.3625 7.375 5.0625 C1.765 5.0625 -3.845 5.0625 -9.625 5.0625 C-9.625 3.7425 -9.625 2.4225 -9.625 1.0625 C-6.55966836 -0.47016582 -3.35745728 -0.04026471 0 0 Z " fill="#7BA7C5" transform="translate(337.625,372.9375)"/>
<path d="M0 0 C0.33 0 0.66 0 1 0 C1 2.97 1 5.94 1 9 C4.41943506 8.57730231 7.72174346 8.08008783 11 7 C12.75568004 4.54251602 12.75568004 4.54251602 13 2 C14.65 2.33 16.3 2.66 18 3 C18.25 5.75 18.25 5.75 18 9 C16 11.375 16 11.375 14 13 C13.01 12.34 12.02 11.68 11 11 C8.26127045 10.54227937 8.26127045 10.54227937 5.3125 10.375 C4.31863281 10.30023438 3.32476562 10.22546875 2.30078125 10.1484375 C1.54152344 10.09945313 0.78226562 10.05046875 0 10 C0 6.7 0 3.4 0 0 Z " fill="#89B2CE" transform="translate(99,364)"/>
<path d="M0 0 C6.625 -0.25 6.625 -0.25 10 2 C9.125 6.875 9.125 6.875 8 8 C5.32941149 8.14115161 2.67567762 8.04247107 0 8 C0 5.36 0 2.72 0 0 Z " fill="#E2F2FC" transform="translate(100,351)"/>
<path d="M0 0 C8.25 0 16.5 0 25 0 C25 1.65 25 3.3 25 5 C24.67 3.68 24.34 2.36 24 1 C18.06 1.495 18.06 1.495 12 2 C12 2.66 12 3.32 12 4 C11.30132812 3.98839844 10.60265625 3.97679687 9.8828125 3.96484375 C8.97273438 3.95582031 8.06265625 3.94679688 7.125 3.9375 C6.22007812 3.92589844 5.31515625 3.91429687 4.3828125 3.90234375 C1.9831415 3.83750743 1.9831415 3.83750743 0 5 C0 3.35 0 1.7 0 0 Z " fill="#91B7D2" transform="translate(270,346)"/>
<path d="M0 0 C0.66 0.33 1.32 0.66 2 1 C2.62669199 3.16467461 3.15427374 5.35864524 3.625 7.5625 C3.88539063 8.76003906 4.14578125 9.95757812 4.4140625 11.19140625 C4.60742188 12.11824219 4.80078125 13.04507812 5 14 C2.03 14 -0.94 14 -4 14 C-3.79503906 13.32453125 -3.59007812 12.6490625 -3.37890625 11.953125 C-3.10949219 11.06109375 -2.84007812 10.1690625 -2.5625 9.25 C-2.16224609 7.92742187 -2.16224609 7.92742187 -1.75390625 6.578125 C-1.11531506 4.39434165 -0.53224167 2.21164502 0 0 Z " fill="#D5ECFB" transform="translate(257,352)"/>
<path d="M0 0 C0.66 0 1.32 0 2 0 C2.50559908 1.43554025 3.0042749 2.8735202 3.5 4.3125 C3.7784375 5.11300781 4.056875 5.91351563 4.34375 6.73828125 C5 9 5 9 5 12 C2.36 12 -0.28 12 -3 12 C-2.40075776 7.80530429 -1.42500059 3.99000166 0 0 Z " fill="#DBEEFA" transform="translate(307,354)"/>
<path d="M0 0 C0.66 0.33 1.32 0.66 2 1 C2 2.65 2 4.3 2 6 C-1 7 -1 7 -4 7 C-6.18490007 9.67642489 -6.18490007 9.67642489 -6 12 C-6.99 12 -7.98 12 -9 12 C-9 11.01 -9 10.02 -9 9 C-9.66 8.67 -10.32 8.34 -11 8 C-9.5433323 6.85204994 -8.08461063 5.70670581 -6.625 4.5625 C-5.40683594 3.60537109 -5.40683594 3.60537109 -4.1640625 2.62890625 C-2 1 -2 1 0 0 Z " fill="#8CB4CD" transform="translate(268,265)"/>
<path d="M0 0 C0.90492188 0.02320313 1.80984375 0.04640625 2.7421875 0.0703125 C4.10730469 0.09738281 4.10730469 0.09738281 5.5 0.125 C6.19867188 0.14820313 6.89734375 0.17140625 7.6171875 0.1953125 C7.2871875 1.1853125 6.9571875 2.1753125 6.6171875 3.1953125 C7.6071875 3.5253125 8.5971875 3.8553125 9.6171875 4.1953125 C9.00230469 4.32808594 8.38742187 4.46085937 7.75390625 4.59765625 C6.54154297 4.86255859 6.54154297 4.86255859 5.3046875 5.1328125 C4.50417969 5.30683594 3.70367187 5.48085938 2.87890625 5.66015625 C0.4717865 6.19417409 0.4717865 6.19417409 -2.3828125 7.1953125 C-3.0428125 5.5453125 -3.7028125 3.8953125 -4.3828125 2.1953125 C-2.3828125 0.1953125 -2.3828125 0.1953125 0 0 Z " fill="#7FAAC7" transform="translate(357.3828125,346.8046875)"/>
<path d="M0 0 C0.66 0 1.32 0 2 0 C2 4.29 2 8.58 2 13 C-1 11 -1 11 -2 10 C-2.33 11.32 -2.66 12.64 -3 14 C-3.08153933 12.41753293 -3.13943557 10.83383727 -3.1875 9.25 C-3.22230469 8.36828125 -3.25710937 7.4865625 -3.29296875 6.578125 C-2.94589665 3.52389051 -2.11745198 2.19435701 0 0 Z " fill="#78A7C6" transform="translate(194,347)"/>
<path d="M0 0 C1.98 0 3.96 0 6 0 C5.34805664 0.70213623 4.69611328 1.40427246 4.02441406 2.12768555 C1.68086714 5.45279766 1.52717612 6.94983597 1.609375 10.95703125 C1.62226563 12.06884766 1.63515625 13.18066406 1.6484375 14.32617188 C1.68195313 15.47666016 1.71546875 16.62714844 1.75 17.8125 C1.76804688 18.98232422 1.78609375 20.15214844 1.8046875 21.35742188 C1.8517356 24.2391178 1.91746291 27.11913797 2 30 C3.32 30.33 4.64 30.66 6 31 C6 31.33 6 31.66 6 32 C4.02 32 2.04 32 0 32 C0 21.44 0 10.88 0 0 Z " fill="#8AAEC7" transform="translate(190,346)"/>
<path d="M0 0 C1.32 0 2.64 0 4 0 C4 0.99 4 1.98 4 3 C15.88 3 27.76 3 40 3 C40 3.33 40 3.66 40 4 C34.80390542 4.07421905 29.60812017 4.12863446 24.41162109 4.16479492 C22.64431381 4.17987102 20.87704386 4.20033522 19.10986328 4.22631836 C16.56794005 4.26275402 14.02651194 4.27973794 11.484375 4.29296875 C10.69569031 4.30845261 9.90700562 4.32393646 9.09442139 4.33988953 C5.69433549 4.34093 3.42190066 4.25316482 0.46972656 2.48168945 C-0.0152832 1.99273193 -0.50029297 1.50377441 -1 1 C-0.67 0.67 -0.34 0.34 0 0 Z " fill="#89AEC8" transform="translate(228,310)"/>
<path d="M0 0 C2.9375 0.375 2.9375 0.375 6 1 C7.35439668 3.70879335 7.06501451 6.00933268 7 9 C6.67 7.68 6.34 6.36 6 5 C2.68539295 6.70892499 2.68539295 6.70892499 2.3125 10.125 C2.209375 11.07375 2.10625 12.0225 2 13 C-0.20914 9.68629 -0.22481553 8.6553979 -0.125 4.8125 C-0.10695313 3.91144531 -0.08890625 3.01039063 -0.0703125 2.08203125 C-0.04710937 1.39496094 -0.02390625 0.70789063 0 0 Z " fill="#8BB4CF" transform="translate(381,357)"/>
<path d="M0 0 C2.31 0 4.62 0 7 0 C7 1.32 7 2.64 7 4 C6.01 4.495 6.01 4.495 5 5 C5.66 5.66 6.32 6.32 7 7 C4.69 7 2.38 7 0 7 C0 4.69 0 2.38 0 0 Z " fill="#E3F7FE" transform="translate(100,366)"/>
<path d="M0 0 C1.85625 0.061875 1.85625 0.061875 3.75 0.125 C3.75 0.455 3.75 0.785 3.75 1.125 C2.1 1.125 0.45 1.125 -1.25 1.125 C-1.58 2.115 -1.91 3.105 -2.25 4.125 C-3.24 3.795 -4.23 3.465 -5.25 3.125 C-6.8998007 6.42460141 -6.63258361 10.11627884 -6.8125 13.75 C-6.85568359 14.55179688 -6.89886719 15.35359375 -6.94335938 16.1796875 C-7.04951457 18.1612511 -7.15026855 20.14310271 -7.25 22.125 C-7.58 22.125 -7.91 22.125 -8.25 22.125 C-8.25 15.525 -8.25 8.925 -8.25 2.125 C-4.63863788 0.31931894 -3.705469 -0.12351563 0 0 Z " fill="#80A8C3" transform="translate(144.25,105.875)"/>
<path d="M0 0 C0.66 0 1.32 0 2 0 C2.66 2.64 3.32 5.28 4 8 C1.69 8 -0.62 8 -3 8 C-2.45276317 4.62537285 -1.9451 2.91765 0 0 Z " fill="#85ACC9" transform="translate(318,370)"/>
<path d="M0 0 C0.94875 0.350625 1.8975 0.70125 2.875 1.0625 C0.18658141 3.31495881 -1.77141875 4.94463958 -5.125 6.0625 C-5.785 5.0725 -6.445 4.0825 -7.125 3.0625 C-6.465 2.7325 -5.805 2.4025 -5.125 2.0625 C-5.125 1.4025 -5.125 0.7425 -5.125 0.0625 C-3.125 -0.9375 -3.125 -0.9375 0 0 Z " fill="#91B8D2" transform="translate(274.125,133.9375)"/>
<path d="M0 0 C3.63 0 7.26 0 11 0 C11 0.33 11 0.66 11 1 C8.69 1 6.38 1 4 1 C3.67 1.99 3.34 2.98 3 4 C0.9375 4.6875 0.9375 4.6875 -1 5 C-0.67 3.35 -0.34 1.7 0 0 Z " fill="#CEE2F3" transform="translate(252,370)"/>
<path d="M0 0 C0.33 0.66 0.66 1.32 1 2 C0.25888587 3.61697628 -0.48313244 5.23354632 -1.23046875 6.84765625 C-2.63054435 10.76360374 -2.7592621 14.87425042 -3 19 C-3.33 19 -3.66 19 -4 19 C-4.44701413 11.43801103 -4.53574091 6.23664375 0 0 Z " fill="#86ACC7" transform="translate(220,349)"/>
<path d="M0 0 C-9.41002278 2.48063781 -9.41002278 2.48063781 -14 1 C-11.51558836 -1.48441164 -9.46206166 -1.55681238 -6.0703125 -2.046875 C-3.59076268 -1.99073425 -2.1220564 -1.23707324 0 0 Z " fill="#9DBBD0" transform="translate(318,122)"/>
<path d="M0 0 C0 1.65 0 3.3 0 5 C-0.99 5.33 -1.98 5.66 -3 6 C-3.33 7.65 -3.66 9.3 -4 11 C-4.33 11 -4.66 11 -5 11 C-5.125 4.375 -5.125 4.375 -4 1 C-1 0 -1 0 0 0 Z " fill="#77A6C6" transform="translate(149,354)"/>
<path d="M0 0 C2.64 0 5.28 0 8 0 C7.34 1.32 6.68 2.64 6 4 C5.01 3.67 4.02 3.34 3 3 C0.85744207 3.38932856 0.85744207 3.38932856 -1 4 C-0.67 2.68 -0.34 1.36 0 0 Z " fill="#90B2CC" transform="translate(304,346)"/>
<path d="M0 0 C1.98 0.495 1.98 0.495 4 1 C4.33 2.32 4.66 3.64 5 5 C3.02 5 1.04 5 -1 5 C-0.67 3.35 -0.34 1.7 0 0 Z " fill="#81A8C2" transform="translate(208,373)"/>
<path d="M0 0 C3.79588866 0.54226981 5.47211993 2.20127563 8 5 C7.67 5.99 7.34 6.98 7 8 C6.21625 7.175 5.4325 6.35 4.625 5.5 C2.36278736 2.77011494 2.36278736 2.77011494 0 3 C0 2.01 0 1.02 0 0 Z " fill="#85ADC7" transform="translate(196,363)"/>
<path d="M0 0 C0.66 0.33 1.32 0.66 2 1 C1.01 2.98 0.02 4.96 -1 7 C-2.32 6.67 -3.64 6.34 -5 6 C-2.25 1.125 -2.25 1.125 0 0 Z " fill="#8CB6D3" transform="translate(291,255)"/>
<path d="M0 0 C-0.33 1.32 -0.66 2.64 -1 4 C-3.31 4.33 -5.62 4.66 -8 5 C-7.67 4.34 -7.34 3.68 -7 3 C-6.34 3 -5.68 3 -5 3 C-5 2.34 -5 1.68 -5 1 C-2 0 -2 0 0 0 Z " fill="#86ADC5" transform="translate(125,129)"/>
<path d="M0 0 C0.99 0.33 1.98 0.66 3 1 C2.67 2.65 2.34 4.3 2 6 C1.01 6.33 0.02 6.66 -1 7 C-0.67 4.69 -0.34 2.38 0 0 Z " fill="#D4EDFA" transform="translate(107,352)"/>
<path d="M0 0 C-2.40545638 1.20272819 -3.94996953 1.10071472 -6.625 1.0625 C-7.85089844 1.04896484 -7.85089844 1.04896484 -9.1015625 1.03515625 C-10.04128906 1.01775391 -10.04128906 1.01775391 -11 1 C-7.46642139 -2.53357861 -4.06810357 -2.71206905 0 0 Z " fill="#7EAECF" transform="translate(114,349)"/>
<path d="M0 0 C1.65 0 3.3 0 5 0 C5 1.32 5 2.64 5 4 C3.68 4 2.36 4 1 4 C0.67 2.68 0.34 1.36 0 0 Z " fill="#EAEFF6" transform="translate(102,366)"/>
<path d="M0 0 C3.14624993 -0.26218749 4.61837017 -0.24754367 7.3125 1.5 C8.1478125 2.2425 8.1478125 2.2425 9 3 C6.03 2.67 3.06 2.34 0 2 C0 1.34 0 0.68 0 0 Z " fill="#87AEC9" transform="translate(224,376)"/>
<path d="M0 0 C1.65 0 3.3 0 5 0 C3.25 3.875 3.25 3.875 1 5 C0.67 3.35 0.34 1.7 0 0 Z " fill="#7EA7C5" transform="translate(207,347)"/>
<path d="M0 0 C1.32 0.33 2.64 0.66 4 1 C3.67 2.65 3.34 4.3 3 6 C2.01 5.67 1.02 5.34 0 5 C0.66 5 1.32 5 2 5 C2 4.34 2 3.68 2 3 C1.34 3 0.68 3 0 3 C0 2.01 0 1.02 0 0 Z " fill="#90B0C8" transform="translate(402,347)"/>
</svg>
